<svg width="35" height="34" viewBox="0 0 35 34" fill="none" xmlns="http://www.w3.org/2000/svg">
<path d="M10.1138 34C11.1482 34 11.9834 33.5479 13.2706 32.4293L18.4424 27.8934H26.7174C31.4141 27.8934 34.2338 25.0278 34.2338 20.3769V8.23272C34.2338 3.58189 31.4141 0.716309 26.7174 0.716309H7.50876C2.81962 0.716309 0 3.57423 0 8.23272V20.3769C0 25.0355 2.99584 27.8934 7.24059 27.8934H7.68498V31.3029C7.68498 32.9656 8.59676 34 10.1138 34ZM11.0639 29.6096V25.3573C11.0639 24.3306 10.5659 23.9399 9.64645 23.9399H7.74627C5.20249 23.9399 3.95359 22.6525 3.95359 20.1395V8.46258C3.95359 5.94945 5.20249 4.66989 7.74627 4.66989H26.4875C29.0236 4.66989 30.2802 5.94945 30.2802 8.46258V20.1395C30.2802 22.6525 29.0236 23.9399 26.4875 23.9399H18.1513C17.094 23.9399 16.6265 24.139 15.8603 24.8975L11.0639 29.6096ZM9.00283 13.9486H14.9332C16.1821 13.9486 16.7798 13.3586 16.7798 12.102V9.55058C16.7798 8.30167 16.1821 7.71937 14.9332 7.71937H9.00283C7.74627 7.71937 7.14097 8.30167 7.14097 9.55058V12.102C7.14097 13.3586 7.74627 13.9486 9.00283 13.9486ZM10.5046 20.8444H15.7147C16.9636 20.8444 17.5536 20.2544 17.5536 18.9978V17.3275C17.5536 16.0786 16.9636 15.4886 15.7147 15.4886H10.5046C9.25569 15.4886 8.66571 16.0786 8.66571 17.3275V18.9978C8.66571 20.2544 9.25569 20.8444 10.5046 20.8444ZM20.9556 19.8713H25.1926C26.4416 19.8713 27.0391 19.2813 27.0391 18.0401V10.5696C27.0391 9.32073 26.4416 8.73075 25.1926 8.73075H20.9556C19.699 8.73075 19.1014 9.32073 19.1014 10.5696V18.0401C19.1014 19.2813 19.699 19.8713 20.9556 19.8713Z" fill="#4F4F4F" fill-opacity="0.62"/>
</svg>
