<svg width="32" height="35" viewBox="0 0 32 35" fill="none" xmlns="http://www.w3.org/2000/svg">
<path d="M15.6906 20.4958C16.3802 20.4958 17.0477 20.2288 17.93 19.7097L29.3198 13.1176C30.6843 12.3316 31.3665 11.5678 31.3665 10.4036C31.3665 9.24682 30.6843 8.49046 29.3198 7.69703L17.93 1.10487C17.0477 0.593219 16.3802 0.318855 15.6906 0.318855C14.9936 0.318855 14.3411 0.593219 13.4438 1.10487L2.05402 7.69703C0.689619 8.49046 0.00741524 9.24682 0.00741524 10.4036C0.00741524 11.5678 0.689619 12.3316 2.05402 13.1176L13.4438 19.7097C14.3411 20.2288 14.9936 20.4958 15.6906 20.4958ZM15.6906 16.5137C15.5201 16.5137 15.3793 16.4545 15.1716 16.3432L4.9163 10.5445C4.85698 10.5074 4.82732 10.4703 4.82732 10.4036C4.82732 10.3443 4.85698 10.3072 4.9163 10.2701L15.1716 4.4714C15.3793 4.36016 15.5201 4.30825 15.6906 4.30825C15.8539 4.30825 15.9946 4.36016 16.2022 4.4714L26.4576 10.2701C26.5243 10.3072 26.5466 10.3443 26.5466 10.4036C26.5466 10.4703 26.5243 10.5074 26.4576 10.5445L16.2022 16.3432C15.9946 16.4545 15.8539 16.5137 15.6906 16.5137ZM15.6906 27.9259C16.3506 27.9259 16.9438 27.6218 17.7818 27.1324L29.8018 20.0878C30.8029 19.4947 31.3739 18.768 31.3739 17.7967C31.3739 16.8993 30.8623 16.195 30.1727 15.7426L17.0106 23.4026C16.4767 23.7066 16.0911 23.8919 15.6906 23.8919C15.2829 23.8919 14.8972 23.7066 14.3633 23.4026L1.20127 15.7426C0.511652 16.195 0 16.8993 0 17.7967C0 18.768 0.578389 19.5021 1.57945 20.0878L13.5922 27.1324C14.4375 27.6218 15.0307 27.9259 15.6906 27.9259ZM15.6906 35C16.3506 35 16.9438 34.696 17.7818 34.2065L29.8018 27.162C30.7955 26.5837 31.3739 25.8421 31.3739 24.8708C31.3739 23.9734 30.8623 23.2764 30.1727 22.8167L17.0106 30.484C16.4767 30.788 16.0911 30.9735 15.6906 30.9735C15.2829 30.9735 14.8972 30.788 14.3633 30.484L1.20127 22.8167C0.511652 23.2764 0 23.9734 0 24.8708C0 25.8421 0.578389 26.5837 1.57945 27.162L13.5922 34.2065C14.4375 34.696 15.0307 35 15.6906 35Z" fill="#4F4F4F" fill-opacity="0.62"/>
</svg>
