<svg width="58" height="73" viewBox="0 0 58 73" fill="currentColor" xmlns="http://www.w3.org/2000/svg">
<path d="M27.4375 72.2812C31.8958 72.2812 35.9375 71.5625 39.5625 70.125C43.2083 68.7083 46.3438 66.6771 48.9688 64.0312C51.6146 61.4062 53.6458 58.2708 55.0625 54.625C56.4792 50.9583 57.1875 46.8958 57.1875 42.4375C57.1875 37.5625 56.5417 33.1562 55.25 29.2188C53.9792 25.2812 52.2292 21.7812 50 18.7188C47.7708 15.6354 45.2292 12.9792 42.375 10.75C39.5417 8.5 36.5417 6.65625 33.375 5.21875C30.2083 3.76042 27.0312 2.6875 23.8438 2C20.6771 1.29167 17.6771 0.9375 14.8438 0.9375C12.8021 0.9375 11.1458 1.36458 9.875 2.21875C8.625 3.05208 8 4.26042 8 5.84375C8 6.46875 8.125 7.08333 8.375 7.6875C8.64583 8.29167 8.98958 8.85417 9.40625 9.375C10.8438 11.125 12.1146 12.8125 13.2188 14.4375C14.3438 16.0417 15.2188 17.6562 15.8438 19.2812C16.4688 20.9062 16.7812 22.6562 16.7812 24.5312C16.7812 24.7812 16.7604 25.0312 16.7188 25.2812C16.6979 25.5104 16.6146 25.7812 16.4688 26.0938L17.5312 25.75C16.6979 23.8542 15.8438 22.375 14.9688 21.3125C14.1146 20.25 13.2396 19.5104 12.3438 19.0938C11.4688 18.6562 10.5833 18.4375 9.6875 18.4375C8.64583 18.4375 7.80208 18.7604 7.15625 19.4062C6.53125 20.0521 6.21875 20.9479 6.21875 22.0938C6.21875 22.8229 6.26042 23.5312 6.34375 24.2188C6.42708 24.8854 6.46875 25.7292 6.46875 26.75C6.46875 28.2708 6.28125 29.6458 5.90625 30.875C5.53125 32.0833 5.0625 33.2604 4.5 34.4062C3.9375 35.5521 3.375 36.8021 2.8125 38.1562C2.25 39.4896 1.77083 41.0417 1.375 42.8125C1 44.5625 0.8125 46.6667 0.8125 49.125C0.8125 53.75 1.91667 57.8021 4.125 61.2812C6.35417 64.7396 9.45833 67.4375 13.4375 69.375C17.4375 71.3125 22.1042 72.2812 27.4375 72.2812ZM27.8125 64.1562C24.0417 64.1562 20.7396 63.5312 17.9062 62.2812C15.0729 61.0312 12.8646 59.2812 11.2812 57.0312C9.71875 54.7604 8.9375 52.125 8.9375 49.125C8.9375 47.3958 9.09375 45.8854 9.40625 44.5938C9.73958 43.2812 10.1458 42.0521 10.625 40.9062C11.1042 39.7396 11.5729 38.5208 12.0312 37.25C12.5104 35.9792 12.9062 34.5312 13.2188 32.9062C13.5312 31.2812 13.6875 29.3438 13.6875 27.0938C13.6875 26.7188 13.6562 26.3438 13.5938 25.9688C13.5521 25.5938 13.5104 25.2396 13.4688 24.9062L11.6562 25.125C12.2812 26.0625 12.8438 27.0938 13.3438 28.2188C13.8438 29.3229 14.2708 30.4688 14.625 31.6562C14.9792 32.8229 15.2604 33.9896 15.4688 35.1562C15.5938 35.8646 15.8542 36.4271 16.25 36.8438C16.6667 37.2396 17.1979 37.4375 17.8438 37.4375C18.8229 37.4375 19.6875 37.0417 20.4375 36.25C21.2083 35.4583 21.8542 34.4167 22.375 33.125C22.9167 31.8125 23.3229 30.375 23.5938 28.8125C23.8854 27.2292 24.0312 25.6667 24.0312 24.125C24.0312 21.9375 23.7396 19.7604 23.1562 17.5938C22.5938 15.4271 21.7812 13.375 20.7188 11.4375C19.6562 9.47917 18.3854 7.75 16.9062 6.25L14.6875 8.75C18.8542 8.97917 22.6979 9.6875 26.2188 10.875C29.7604 12.0417 32.9167 13.625 35.6875 15.625C38.4792 17.6042 40.8542 19.9479 42.8125 22.6562C44.7708 25.3646 46.2604 28.3646 47.2812 31.6562C48.3229 34.9479 48.8438 38.4688 48.8438 42.2188C48.8438 46.6146 47.9688 50.4583 46.2188 53.75C44.4688 57.0417 42.0104 59.6042 38.8438 61.4375C35.6771 63.25 32 64.1562 27.8125 64.1562ZM28.3438 59.9375C30.5104 59.9375 32.375 59.4792 33.9375 58.5625C35.5 57.625 36.6979 56.3542 37.5312 54.75C38.3646 53.125 38.7812 51.2917 38.7812 49.25C38.7812 47.0625 38.3958 44.9792 37.625 43C36.8542 41 35.7292 39.2188 34.25 37.6562C32.7708 36.0938 30.9896 34.875 28.9062 34C28.5729 33.875 28.2604 33.8958 27.9688 34.0625C27.6979 34.2292 27.6042 34.5208 27.6875 34.9375C28.0208 36.8958 28.1458 38.7604 28.0625 40.5312C27.9792 42.3021 27.5833 43.9062 26.875 45.3438C26.5625 44.3229 26.1979 43.4375 25.7812 42.6875C25.3646 41.9375 24.875 41.2708 24.3125 40.6875C24 40.4167 23.6979 40.3438 23.4062 40.4688C23.1354 40.5938 22.9896 40.8125 22.9688 41.125C22.8438 42.1875 22.5833 43.1146 22.1875 43.9062C21.7917 44.6979 21.3542 45.4583 20.875 46.1875C20.3958 46.8958 19.9688 47.6875 19.5938 48.5625C19.2396 49.4375 19.0625 50.5 19.0625 51.75C19.0625 54.2083 19.9062 56.1875 21.5938 57.6875C23.3021 59.1875 25.5521 59.9375 28.3438 59.9375Z" fill="url(#paint0_linear_142_61)"/>
<defs>
<linearGradient id="paint0_linear_142_61" x1="68.5481" y1="1" x2="-4.73889" y2="3.88328" gradientUnits="userSpaceOnUse">
<stop stop-color="#FF002E"/>
<stop offset="1" stop-color="#FFBB0C"/>
</linearGradient>
</defs>
</svg>
