<svg width="40px" height="40px" viewBox="0 0 24 24"  xmlns="http://www.w3.org/2000/svg">
<path d="M11.6682 24C18.0515 24 23.3365 18.7035 23.3365 12.3317C23.3365 8.81982 21.735 5.77692 19.5386 3.77502C18.5319 2.85987 17.2393 4.22116 18.2345 5.17063C20.1792 6.94374 21.3804 9.4833 21.3918 12.3317C21.4032 17.7311 17.0677 22.0552 11.6682 22.0552C6.26882 22.0552 1.95614 17.7311 1.95614 12.3317C1.96759 9.46043 3.16873 6.93231 5.102 5.1592C6.10867 4.19828 4.80457 2.84842 3.7979 3.76358C1.59008 5.76549 0 8.81982 0 12.3317C0 18.7035 5.29646 24 11.6682 24ZM11.6682 12.2174C12.2174 12.2174 12.5949 11.817 12.5949 11.245V0.972354C12.5949 0.388941 12.2174 0 11.6682 0C11.1192 0 10.7531 0.388941 10.7531 0.972354V11.245C10.7531 11.817 11.1192 12.2174 11.6682 12.2174Z" fill="currentColor"/>
</svg>
