<svg width="55" height="24" viewBox="0 0 55 24" fill="none" xmlns="http://www.w3.org/2000/svg">
<g clip-path="url(#clip0_8_313)">
<path d="M16.4654 17.6751C14.1824 19.4778 11.6453 19.7889 8.99813 18.6159C6.4714 17.492 5.05495 15.4899 4.72796 12.7227C4.11857 7.54549 9.58374 3.32692 14.4395 5.20995C16.174 5.88426 17.4567 7.17931 18.8583 8.30168C19.4517 8.81568 20.2194 9.08208 21.0031 9.04596C22.9739 8.99833 24.9463 9.03107 26.9171 9.03107C26.9171 9.04596 26.706 8.6634 19.0292 2.39806C15.3655 -0.586491 10.0222 -0.744278 5.94525 1.70142C1.51455 4.36594 -0.456299 8.36718 0.0891778 13.4848C0.723833 19.4391 5.78175 23.9568 11.7642 24C15.0608 24.0223 17.8982 22.7734 20.3996 20.6195C22.2412 19.0342 34.4096 9.29753 38.1729 6.32934C40.4559 4.5267 42.9931 4.2141 45.6402 5.38858C48.1669 6.51095 49.5834 8.51454 49.9103 11.2818C50.5197 16.4575 45.0531 20.6761 40.1973 18.7901C38.4643 18.1157 37.1816 16.8207 35.78 15.6968C35.1864 15.1832 34.4189 14.9169 33.6352 14.9526C31.6644 15.0002 29.692 14.9674 27.7212 14.9674C27.7212 14.9526 27.9323 15.3351 35.6091 21.6004C39.2728 24.591 44.6161 24.7517 48.6886 22.303C53.1238 19.6341 55.0946 15.6298 54.5476 10.5152C53.9145 4.56243 48.8566 0.043168 42.8741 -1.65526e-07C39.5775 -0.0238171 36.7401 1.22508 34.2387 3.37902C32.8059 4.61453 18.4213 16.13 16.4654 17.6751Z" fill="#D9D9D9" fill-opacity="0.35"/>
</g>
<defs>
<clipPath id="clip0_8_313">
<rect width="54.6383" height="24" fill="white"/>
</clipPath>
</defs>
</svg>
