<svg width="57" height="28" viewBox="0 0 57 28" fill="none" xmlns="http://www.w3.org/2000/svg">
<path d="M19.317 27.9927H37.1615C39.8166 27.9927 41.1367 27.1005 41.1367 25.2072C41.1367 20.9347 35.8777 15.9004 28.2393 15.9004C20.601 15.9004 15.3419 20.9347 15.3419 25.2072C15.3419 27.1005 16.6548 27.9927 19.317 27.9927ZM19.2083 24.9242C18.9325 24.9242 18.8311 24.8155 18.8311 24.6051C18.8311 22.6611 22.2622 18.9689 28.2393 18.9689C34.2165 18.9689 37.6476 22.6611 37.6476 24.6051C37.6476 24.8155 37.546 24.9242 37.2704 24.9242H19.2083ZM28.2393 14.2829C31.8444 14.2829 34.7315 11.1492 34.7315 7.26113C34.7315 3.46009 31.8373 0.384453 28.2393 0.384453C24.6776 0.384453 21.7399 3.4891 21.7544 7.27563C21.7688 11.1565 24.6414 14.2829 28.2393 14.2829ZM28.2393 11.2145C26.4259 11.2145 24.9098 9.50982 24.9098 7.26838C24.888 5.13574 26.4404 3.45284 28.2393 3.45284C30.0674 3.45284 31.5761 5.11397 31.5761 7.26113C31.5761 9.48081 30.0745 11.2145 28.2393 11.2145ZM3.40207 28H14.4787C13.5285 27.4196 12.9917 26.0849 13.115 24.9823H3.61243C3.36579 24.9823 3.286 24.8663 3.286 24.6776C3.286 21.7834 6.86941 18.8963 11.2507 18.8963C12.5419 18.8963 14.1523 19.2518 15.175 19.7523C15.6901 18.8528 16.4155 18.0911 17.4383 17.46C15.6611 16.4736 13.2963 15.8932 11.2507 15.8932C5.03418 15.8932 0 20.2382 0 25.0621C0 26.9772 1.1316 28 3.40207 28ZM11.258 14.602C14.3989 14.602 16.9306 11.8456 16.9306 8.42175C16.9306 5.09947 14.3772 2.37201 11.258 2.37201C8.13885 2.37201 5.56372 5.12849 5.57822 8.4435C5.58549 11.8673 8.11708 14.602 11.258 14.602ZM11.258 11.5844C9.81449 11.5844 8.6031 10.2062 8.6031 8.4435C8.58858 6.7606 9.82174 5.39687 11.258 5.39687C12.7015 5.39687 13.9202 6.7461 13.9202 8.42175C13.9202 10.2062 12.7088 11.5844 11.258 11.5844ZM53.0765 28C55.3471 28 56.4787 26.9772 56.4787 25.0621C56.4787 20.2382 51.4444 15.8932 45.2278 15.8932C43.1823 15.8932 40.8175 16.4736 39.0403 17.46C40.0632 18.0911 40.7886 18.8528 41.3108 19.7523C42.3263 19.2518 43.9294 18.8963 45.2278 18.8963C49.6093 18.8963 53.1998 21.7834 53.1998 24.6776C53.1998 24.8663 53.1129 24.9823 52.8661 24.9823H43.3708C43.487 26.0849 42.9428 27.4196 41.9999 28H53.0765ZM45.2207 14.602C48.3615 14.602 50.8931 11.8673 50.9004 8.4435C50.915 5.12849 48.3398 2.37201 45.2207 2.37201C42.1014 2.37201 39.5481 5.09947 39.5481 8.42175C39.5481 11.8456 42.087 14.602 45.2207 14.602ZM45.2207 11.5844C43.7699 11.5844 42.5585 10.2062 42.5585 8.42175C42.5585 6.7461 43.7844 5.39687 45.2207 5.39687C46.6568 5.39687 47.89 6.7606 47.8827 8.4435C47.8827 10.2062 46.6568 11.5844 45.2207 11.5844Z" fill="#4F4F4F" fill-opacity="0.62"/>
</svg>
