<svg width="101" height="44" viewBox="0 0 101 44" fill="none" xmlns="http://www.w3.org/2000/svg">
<g clip-path="url(#clip0_5_543)">
<path d="M30.1865 32.4044C26.0011 35.7092 21.3496 36.2796 16.4966 34.1291C11.8643 32.0687 9.26742 28.3982 8.66794 23.3249C7.55073 13.8334 17.5702 6.09936 26.4725 9.55158C29.6524 10.7878 32.004 13.1621 34.5736 15.2198C35.6615 16.1621 37.0689 16.6505 38.5056 16.5843C42.1189 16.4969 45.7348 16.557 49.348 16.557C49.348 16.5843 48.9611 15.8829 34.887 4.39646C28.1701 -1.07523 18.3741 -1.36451 10.8996 3.11927C2.7767 8.00422 -0.836527 15.3398 0.163513 24.7222C1.32705 35.6383 10.5999 43.9209 21.5676 44C27.6115 44.0409 32.8133 41.7513 37.3993 37.8024C40.7755 34.896 63.0843 17.0455 69.9837 11.6038C74.1692 8.29895 78.8206 7.72586 83.6737 9.87906C88.306 11.9367 90.9028 15.61 91.5023 20.6833C92.6195 30.1721 82.5973 37.9061 73.6951 34.4484C70.5178 33.2122 68.1662 30.8379 65.5966 28.7775C64.5084 27.8359 63.1013 27.3476 61.6646 27.413C58.0514 27.5003 54.4354 27.4403 50.8222 27.4403C50.8222 27.413 51.2091 28.1144 65.2833 39.6008C72.0002 45.0834 81.7962 45.3782 89.2624 40.8889C97.3935 35.9958 101.007 28.6547 100.004 19.2778C98.8432 8.36445 89.5704 0.0791446 78.6026 3.03442e-06C72.5588 -0.0436613 67.3569 2.24599 62.7709 6.19488C60.1441 8.45997 33.7725 29.5717 30.1865 32.4044Z" fill="url(#paint0_linear_5_543)"/>
</g>
<defs>
<linearGradient id="paint0_linear_5_543" x1="-14.7498" y1="-0.000610726" x2="151.509" y2="29.8456" gradientUnits="userSpaceOnUse">
<stop stop-color="#4771DC"/>
<stop offset="1" stop-color="#621080"/>
</linearGradient>
<clipPath id="clip0_5_543">
<rect width="100.17" height="44" fill="white"/>
</clipPath>
</defs>
</svg>
